<svg width="198" height="59" viewBox="0 0 198 59" fill="none" xmlns="http://www.w3.org/2000/svg">
<g clip-path="url(#clip0_1_41)">
<path d="M70.5172 31.8162V34.2345C69.9249 33.4104 69.4509 32.757 69.0955 32.2741L60.0704 20.1061H57.5554V38.9081H60.3292V24.7796C60.9225 25.6037 61.3964 26.2572 61.7509 26.7401L70.776 38.9081H73.2811V20.1061H70.5172V31.8162Z" fill="#00A443"/>
<path d="M84.8156 25.8683C83.8333 25.2776 82.7039 24.975 81.557 24.9951C80.648 24.9837 79.7458 25.1523 78.9026 25.4913C78.112 25.8183 77.4005 26.3098 76.8156 26.9329C76.211 27.5783 75.7477 28.342 75.455 29.1754C75.1292 30.1122 74.9695 31.0984 74.983 32.0898C74.983 33.5074 75.2706 34.7472 75.8459 35.8094C76.39 36.8438 77.2102 37.7082 78.216 38.3071C79.2695 38.9204 80.4723 39.2319 81.6921 39.2072C82.4717 39.2086 83.2473 39.0954 83.9938 38.8712C84.7438 38.6457 85.4402 38.271 86.0411 37.7698C86.6949 37.2181 87.2389 36.5487 87.6448 35.7966L85.5975 34.5336C85.3433 35.045 84.9962 35.505 84.5739 35.8902C84.1919 36.2313 83.7417 36.4878 83.2531 36.6429C82.7466 36.7983 82.2192 36.8753 81.6892 36.8711C80.9617 36.8819 80.2451 36.6947 79.6163 36.3296C78.9874 35.9508 78.486 35.3936 78.1761 34.7293C77.8788 34.0918 77.7084 33.4029 77.6743 32.7008H87.8623C87.8794 32.5758 87.8879 32.4498 87.8879 32.3237V31.975C87.8879 30.5783 87.614 29.3564 87.0662 28.3093C86.5566 27.3039 85.7776 26.459 84.8156 25.8683ZM78.688 28.4737C79.009 28.061 79.431 27.7374 79.9135 27.5339C80.4252 27.3224 80.9747 27.2168 81.5286 27.2235C82.0314 27.2106 82.5308 27.3101 82.9901 27.5146C83.4494 27.7192 83.857 28.0237 84.1829 28.4057C84.6767 28.9727 84.9942 29.7519 85.1355 30.7432H77.7525C77.7923 30.4936 77.8483 30.2469 77.9202 30.0047C78.0758 29.4502 78.3364 28.9305 78.688 28.4737Z" fill="#00A443"/>
<path d="M99.5361 25.881C98.4413 25.2766 97.206 24.971 95.9548 24.9951C95.0142 24.9862 94.0809 25.1595 93.2066 25.5054C92.3767 25.8355 91.6248 26.3342 90.9987 26.9697C90.3634 27.614 89.8679 28.3816 89.5428 29.225C89.1936 30.138 89.02 31.1084 89.031 32.0855C89.031 33.4823 89.3319 34.7179 89.9338 35.7923C90.5107 36.8418 91.3686 37.7109 92.4119 38.3028C93.3733 38.8217 94.437 39.1244 95.5283 39.1896C96.6196 39.2547 97.7119 39.0807 98.7286 38.6798C99.5561 38.3422 100.308 37.8445 100.942 37.2155C101.578 36.5772 102.074 35.8134 102.397 34.973C102.748 34.0511 102.921 33.0715 102.908 32.0855C102.908 30.668 102.607 29.4282 102.006 28.366C101.429 27.3258 100.574 26.4655 99.5361 25.881ZM99.8873 34.0729C99.6954 34.6252 99.3926 35.1326 98.9973 35.5641C98.6211 35.9664 98.1617 36.2822 97.6509 36.4898C97.1126 36.7086 96.5361 36.8185 95.9548 36.813C95.2021 36.8221 94.4613 36.626 93.8123 36.246C93.1643 35.8584 92.641 35.2942 92.3038 34.6201C91.9361 33.9122 91.7522 33.0665 91.7522 32.0827C91.7398 31.4083 91.8446 30.7369 92.0621 30.0982C92.2521 29.5524 92.5499 29.0502 92.9379 28.6211C93.3087 28.2124 93.7696 27.895 94.2843 27.6941C94.8163 27.4861 95.3833 27.3812 95.9548 27.385C96.7246 27.3716 97.4835 27.5676 98.1499 27.952C98.7965 28.3351 99.3209 28.8929 99.6626 29.5609C100.031 30.2583 100.216 31.1018 100.216 32.0855C100.224 32.7621 100.113 33.4348 99.8873 34.0729Z" fill="#00A443"/>
<path d="M113.88 25.8683C112.898 25.2776 111.768 24.975 110.621 24.9951C109.712 24.9838 108.81 25.1524 107.967 25.4913C107.177 25.8185 106.466 26.31 105.881 26.9329C105.276 27.5779 104.813 28.3417 104.521 29.1754C104.195 30.1122 104.035 31.0984 104.049 32.0898C104.049 33.5074 104.336 34.7472 104.912 35.8094C105.456 36.8438 106.276 37.7082 107.282 38.3071C108.334 38.9181 109.535 39.228 110.752 39.2029C111.533 39.2044 112.309 39.0912 113.057 38.867C113.806 38.6405 114.503 38.2659 115.104 37.7656C115.757 37.2134 116.3 36.5441 116.706 35.7924L114.659 34.5294C114.404 35.0405 114.057 35.5003 113.635 35.886C113.253 36.2267 112.803 36.4832 112.315 36.6387C111.808 36.7939 111.281 36.8709 110.751 36.8669C110.023 36.8787 109.306 36.693 108.676 36.3296C108.05 35.9499 107.55 35.3928 107.242 34.7293C106.944 34.0921 106.773 33.403 106.74 32.7008H116.925C116.943 32.5759 116.952 32.4499 116.952 32.3237V31.975C116.952 30.5783 116.678 29.3564 116.13 28.3093C115.621 27.3039 114.842 26.459 113.88 25.8683ZM107.752 28.4737C108.073 28.0613 108.494 27.7377 108.976 27.5339C109.489 27.3224 110.039 27.2168 110.594 27.2235C111.097 27.2109 111.596 27.3105 112.055 27.5151C112.514 27.7196 112.921 28.0239 113.247 28.4057C113.742 28.9727 114.059 29.7519 114.198 30.7432H106.818C106.858 30.4936 106.914 30.2469 106.986 30.0047C107.142 29.4502 107.402 28.9305 107.754 28.4737H107.752Z" fill="#00A443"/>
<path d="M127.943 25.6401C127.145 25.1987 126.243 24.9761 125.33 24.9951C124.403 24.9928 123.493 25.2486 122.703 25.7337C122.098 26.1104 121.609 26.646 121.29 27.2816V25.2631H118.65V38.9081H121.29V30.8282C121.29 29.7367 121.609 28.882 122.247 28.2639C122.884 27.6459 123.706 27.3369 124.71 27.3369C125.609 27.3369 126.336 27.6412 126.893 28.2498C127.449 28.8584 127.727 29.6824 127.727 30.7219V38.9138H130.394V30.2853C130.417 29.3091 130.19 28.3431 129.735 27.4786C129.322 26.7108 128.701 26.0738 127.943 25.6401Z" fill="#00A443"/>
<path d="M141.925 25.8683C140.942 25.278 139.812 24.9754 138.665 24.9951C137.756 24.9839 136.853 25.1525 136.01 25.4912C135.221 25.8186 134.51 26.3101 133.926 26.9329C133.322 27.5783 132.859 28.342 132.567 29.1754C132.24 30.112 132.081 31.0983 132.095 32.0898C132.095 33.5073 132.382 34.7472 132.956 35.8094C133.501 36.8435 134.321 37.7077 135.326 38.307C136.38 38.9202 137.583 39.2317 138.803 39.2072C139.583 39.2085 140.359 39.0953 141.106 38.8712C141.856 38.6453 142.552 38.2707 143.153 37.7698C143.806 37.2176 144.349 36.5483 144.755 35.7966L142.708 34.5336C142.454 35.0453 142.107 35.5053 141.684 35.8902C141.303 36.2312 140.853 36.4877 140.365 36.6429C139.858 36.798 139.331 36.875 138.801 36.8711C138.074 36.8833 137.356 36.6975 136.727 36.3338C136.096 35.9543 135.594 35.3955 135.284 34.7292C134.986 34.0929 134.814 33.405 134.779 32.7036H144.966C144.983 32.5786 144.992 32.4527 144.993 32.3265V31.9778C144.993 30.5811 144.719 29.3592 144.171 28.3121C143.662 27.3068 142.885 26.4612 141.925 25.8683ZM135.796 28.4737C136.117 28.0609 136.539 27.7373 137.021 27.5339C137.533 27.3223 138.083 27.2167 138.638 27.2235C139.14 27.2107 139.639 27.3102 140.098 27.5148C140.558 27.7193 140.965 28.0237 141.291 28.4057C141.785 28.9727 142.103 29.7518 142.243 30.7432H134.86C134.9 30.4936 134.956 30.2469 135.028 30.0046C135.183 29.4502 135.444 28.9305 135.796 28.4737Z" fill="#00A443"/>
<path d="M150.88 25.6132C150.243 26.0242 149.727 26.6508 149.332 27.4928V25.263H146.692V38.9081H149.332V31.6291C149.332 30.4658 149.628 29.5345 150.222 28.8352C150.494 28.5007 150.839 28.2325 151.231 28.0509C151.623 27.8694 152.052 27.7794 152.484 27.7876H153.83V24.9951H153.048C152.28 24.9837 151.526 25.1987 150.88 25.6132Z" fill="#00A443"/>
<path d="M164.335 27.5552C164.243 27.3922 164.143 27.232 164.038 27.076C163.614 26.4469 163.046 25.927 162.382 25.5593C161.708 25.1813 160.886 24.9923 159.916 24.9923C159.086 24.9851 158.263 25.1497 157.5 25.4757C156.766 25.7893 156.106 26.2512 155.56 26.8322C155.004 27.4276 154.569 28.1252 154.281 28.8862C153.971 29.7117 153.818 30.5876 153.83 31.4689C153.811 32.6254 154.089 33.7675 154.639 34.7859C155.15 35.7334 155.902 36.5302 156.82 37.0965C157.751 37.6665 158.825 37.9614 159.918 37.947C160.887 37.947 161.709 37.7542 162.383 37.3687C163.044 36.9957 163.611 36.4769 164.039 35.8519C164.145 35.6988 164.244 35.5415 164.337 35.3799V37.302C164.337 38.1979 164.147 38.9435 163.768 39.5445C163.405 40.1308 162.882 40.6015 162.259 40.9011C161.612 41.2098 160.903 41.3659 160.185 41.3576C159.351 41.3695 158.531 41.1512 157.814 40.7268C157.097 40.2889 156.497 39.6856 156.064 38.9676L154.204 40.4447C154.605 41.1611 155.146 41.7909 155.793 42.2974C156.41 42.7738 157.109 43.1337 157.855 43.3591C159.785 43.9194 161.853 43.7716 163.684 42.9423C164.692 42.4556 165.534 41.6854 166.108 40.7268C166.7 39.7506 166.997 38.5641 166.997 37.1674V25.263H164.331L164.335 27.5552ZM163.877 33.5768C163.554 34.1755 163.074 34.6763 162.49 35.0269C161.869 35.37 161.172 35.55 160.462 35.55C159.753 35.55 159.055 35.37 158.435 35.0269C157.844 34.6797 157.36 34.1783 157.035 33.5768C156.686 32.9289 156.51 32.2027 156.523 31.4675C156.508 30.724 156.684 29.9891 157.035 29.3327C157.36 28.7309 157.844 28.2294 158.435 27.8826C159.055 27.5387 159.753 27.3581 160.462 27.3581C161.172 27.3581 161.87 27.5387 162.49 27.8826C163.075 28.2328 163.554 28.7338 163.877 29.3327C164.227 29.9893 164.403 30.7241 164.389 31.4675C164.401 32.2026 164.225 32.9286 163.877 33.5768Z" fill="#00A443"/>
<path d="M172.092 19.9587C171.735 19.6467 171.274 19.4793 170.8 19.4895C170.329 19.4776 169.871 19.6454 169.52 19.9587C169.344 20.1201 169.206 20.3179 169.115 20.5384C169.024 20.7588 168.983 20.9964 168.994 21.2344C168.985 21.4683 169.027 21.7014 169.118 21.9171C169.209 22.1329 169.346 22.3262 169.52 22.4833C169.871 22.7971 170.328 22.9654 170.8 22.9539C171.274 22.9636 171.735 22.7957 172.092 22.4833C172.269 22.3284 172.41 22.1359 172.503 21.9198C172.597 21.7037 172.64 21.4695 172.631 21.2344C172.642 20.9952 172.599 20.7565 172.506 20.5357C172.413 20.315 172.271 20.1178 172.092 19.9587Z" fill="#00A443"/>
<path d="M172.119 25.2631H169.479V38.9067H172.119V25.2631Z" fill="#00A443"/>
<path d="M185.652 27.9493C185.333 27.2944 184.868 26.7205 184.293 26.2709C183.716 25.8261 183.057 25.4977 182.354 25.3042C181.604 25.0954 180.829 24.9914 180.051 24.9952C178.885 24.9763 177.734 25.2585 176.71 25.8145C175.713 26.3698 174.934 27.2458 174.5 28.2994L176.577 29.4844C176.829 28.8435 177.277 28.2979 177.857 27.9252C178.441 27.5472 179.155 27.3582 179.998 27.3582C180.602 27.3501 181.202 27.4599 181.764 27.6814C182.288 27.8909 182.735 28.2561 183.043 28.7275C183.366 29.2123 183.527 29.8483 183.528 30.6355V32.1579C183.434 32.0581 183.335 31.9634 183.231 31.8744C182.387 31.1401 181.166 30.773 179.569 30.773C178.613 30.7604 177.663 30.9243 176.767 31.2563C175.98 31.5372 175.29 32.0352 174.776 32.6923C174.305 33.3628 174.051 34.1612 174.048 34.9801C174.046 35.7989 174.295 36.5989 174.762 37.2723C175.265 37.9193 175.936 38.4164 176.703 38.7097C177.573 39.0502 178.502 39.2187 179.437 39.2058C181.053 39.2058 182.301 38.8254 183.18 38.0647C183.358 37.9104 183.521 37.739 183.666 37.553V38.9109H186.171V30.3931C186.192 29.5493 186.014 28.7124 185.652 27.9493ZM182.635 36.5961C181.99 36.9741 181.184 37.1631 180.218 37.1631C179.23 37.1631 178.408 36.9741 177.753 36.5961C177.098 36.2181 176.771 35.6719 176.771 34.9575C176.757 34.6134 176.842 34.2725 177.016 33.9751C177.19 33.6776 177.446 33.4361 177.753 33.2791C178.408 32.9115 179.23 32.7282 180.218 32.7291C181.188 32.7291 181.994 32.9181 182.635 33.2961C182.937 33.4553 183.189 33.6957 183.36 33.9902C183.532 34.2847 183.617 34.6213 183.606 34.9617C183.606 35.6771 183.283 36.2224 182.635 36.5975V36.5961Z" fill="#00A443"/>
<path d="M32.7151 32.2259C32.7119 34.3894 33.5669 36.4663 35.0936 38.0037C38.0394 40.9408 42.0387 40.9351 44.5879 39.5545C47.7085 37.8662 54.729 32.8028 47.4398 11.7994C47.4398 21.7136 32.7151 22.7214 32.7151 32.2259Z" fill="#FF9C1A"/>
<path d="M39.42 20.4789C38.9366 17.8806 38.1617 15.2199 37.003 11.7994C37.003 21.7136 22.2769 22.7214 22.2769 32.2259C22.2735 34.3888 23.1274 36.4655 24.6526 38.0037C27.5984 40.9408 31.6289 40.9323 34.1468 39.5545C28.2922 33.3301 30.3536 26.1249 39.42 20.4789Z" fill="#0DA9FF"/>
<path d="M28.9817 20.4789C28.4983 17.8806 27.7221 15.2199 26.5648 11.7994C26.5648 21.7136 11.8386 22.7214 11.8386 32.2259C11.8386 37.1007 15.7995 39.2469 15.7995 39.2469C15.1841 41.8533 15.0554 44.5505 15.4199 47.2034L17.3094 46.8901C16.3853 43.6865 16.9525 40.198 17.0108 39.8564C19.4278 40.8217 21.92 40.5354 23.7086 39.5573C17.8454 33.3301 19.9154 26.1263 28.9817 20.4789Z" fill="#00A443"/>
</g>
<defs>
<clipPath id="clip0_1_41">
<rect width="198" height="59" fill="white"/>
</clipPath>
</defs>
</svg>